<?xml version="1.0" standalone="no"?><!DOCTYPE svg PUBLIC "-//W3C//DTD SVG 1.1//EN" "http://www.w3.org/Graphics/SVG/1.1/DTD/svg11.dtd"><svg t="1561258314974" class="icon" viewBox="0 0 1024 1024" version="1.1" xmlns="http://www.w3.org/2000/svg" p-id="1563" xmlns:xlink="http://www.w3.org/1999/xlink" width="200" height="200"><defs><style type="text/css"></style></defs><path d="M928 452q-7.008-30.016-26.016-53.504t-40.992-36.512q-32-18.016-71.008-18.016h-91.008q14.016-42.016 18.016-95.008v-3.008q0-56-16-96-15.008-38.016-44.992-60.992-28-20-64-23.008-28.992-2.016-59.008 7.008-42.016 14.016-60.992 56-10.016 22.016-16 64.992l-0.992 0.992v4.992q-2.016 12-4 20.992-18.016 82.016-74.016 140.992-30.016 32-62.016 50.016-22.016 14.016-48.992 14.016H160.992q-28.992 0-48.992 20t-20 48.992v336.992q0 28 20 48.512t48 20.512h148q28.992 0 86.016 18.016h0.992q38.016 12 61.504 18.496t74.496 13.504 108.992 7.008h2.016q116 0 168.992-60 26.016-28 32.992-64 2.016-10.016 2.016-12.992 36-27.008 44.992-66.016 8-32-3.008-64.992 30.016-28.992 35.008-64.992 4.992-32-10.016-64.992 12-24 16.992-48 4.992-30.016-2.016-60z m-80.992 130.016q12 16 8.992 34.016-3.008 19.008-28.992 36-12 8-14.496 21.504t5.504 25.504q11.008 24 7.008 40.992-4 19.008-28.992 34.016-19.008 11.008-16.992 32.992 0.992 2.016 0.512 7.488t-4.992 17.504-14.496 22.016q-32.992 36-119.008 36h-0.992q-52.992 0-99.008-6.016t-68.512-12-56.512-16.992q-58.016-19.008-91.008-22.016V483.008q12.992-4.992 24.992-12 40-24 76-63.008 68.992-72 91.008-172l6.016-30.016q4.992-36 11.008-49.504t20-17.504q36.992-12 62.016 6.016 32.992 24 34.016 100-4 52-20 88.992-12 28 4.992 52.992t46.016 24.992h108.992q20.992 0 36.992 10.016 28 15.008 35.008 47.008 8 32.992-16.992 72.992-12.992 20.992 2.016 40zM160 495.008q0-0.992 0.992-0.992h96v339.008h-96q-0.992 0-0.992-0.992V495.04z" p-id="1564"></path></svg>