<?xml version="1.0" standalone="no"?><!DOCTYPE svg PUBLIC "-//W3C//DTD SVG 1.1//EN" "http://www.w3.org/Graphics/SVG/1.1/DTD/svg11.dtd"><svg t="1561267844976" class="icon" viewBox="0 0 1024 1024" version="1.1" xmlns="http://www.w3.org/2000/svg" p-id="1681" xmlns:xlink="http://www.w3.org/1999/xlink" width="200" height="200"><defs><style type="text/css"></style></defs><path d="M324.992 420q-4.992 8.992-7.488 22.496t-2.496 23.488l0.992 8.992v339.008q-3.008 48.992 12 72 4 6.016 8.992 10.016t8 4.992l4 0.992q68 16.992 80.992 22.016 27.008 12.992 68.992 22.016t72.992 11.008q47.008 3.008 100.992 0 3.008 0 8.512-0.512t20.992-4 30.496-8.992 33.504-16 32.992-24 26.016-34.496 14.496-47.008q2.016-0.992 4-2.496t8.512-6.496 11.488-11.488 11.008-18.016 8.992-24 3.008-30.496-4-38.016l6.016-6.016 12.512-16.992 12.992-26.496 3.488-35.488-11.008-43.008q0.992-4 3.488-9.504t7.488-23.488 6.016-35.008-3.488-39.008-17.504-40.992q-2.016-2.016-4.992-6.016t-14.016-14.496-23.488-18.016-34.016-14.016-44.512-6.496h-80q-23.008 3.008-27.008-4-2.016-2.016-3.008-4t-0.512-4.992 0.992-4.992 2.016-8.512 3.488-11.488q7.008-32 10.016-63.488t-0.512-69.504-24-68-57.504-44q-2.016-2.016-6.496-3.488t-16.512-4-23.488-2.016-25.504 7.008-24.512 19.488-18.496 38.496-10.016 61.504q0.992 3.008 0.512 10.016t-7.488 28-19.008 43.488-40 55.488-66.016 64q-14.016 12-24 28.992z m-232 410.016q0 28.992 20.992 50.496t51.008 21.504h22.016q28.992 0 50.496-21.504t21.504-50.496V497.024q0-30.016-21.504-51.008t-50.496-20.992h-22.016q-30.016 0-51.008 20.992t-20.992 51.008v332.992z" p-id="1682"></path></svg>